<?xml version="1.0" encoding="UTF-8" standalone="no"?>
<!-- Created with Inkscape (http://www.inkscape.org/) -->

<svg
   xmlns:dc="http://purl.org/dc/elements/1.1/"
   xmlns:cc="http://creativecommons.org/ns#"
   xmlns:rdf="http://www.w3.org/1999/02/22-rdf-syntax-ns#"
   xmlns:svg="http://www.w3.org/2000/svg"
   xmlns="http://www.w3.org/2000/svg"
   xmlns:sodipodi="http://sodipodi.sourceforge.net/DTD/sodipodi-0.dtd"
   xmlns:inkscape="http://www.inkscape.org/namespaces/inkscape"
   width="128"
   height="128"
   viewBox="0 0 128 128"
   id="svg2"
   version="1.1"
   inkscape:version="0.91 r13725"
   sodipodi:docname="breakfast.svg">
  <defs
     id="defs4" />
  <sodipodi:namedview
     id="base"
     pagecolor="#ffffff"
     bordercolor="#666666"
     borderopacity="1.0"
     inkscape:pageopacity="0.0"
     inkscape:pageshadow="2"
     inkscape:zoom="2.8"
     inkscape:cx="44.375205"
     inkscape:cy="70.062455"
     inkscape:document-units="px"
     inkscape:current-layer="layer1"
     showgrid="false"
     units="px"
     showguides="false"
     inkscape:window-width="1366"
     inkscape:window-height="713"
     inkscape:window-x="0"
     inkscape:window-y="27"
     inkscape:window-maximized="1" />
  <metadata
     id="metadata7">
    <rdf:RDF>
      <cc:Work
         rdf:about="">
        <dc:format>image/svg+xml</dc:format>
        <dc:type
           rdf:resource="http://purl.org/dc/dcmitype/StillImage" />
        <dc:title></dc:title>
      </cc:Work>
    </rdf:RDF>
  </metadata>
  <g
     inkscape:label="Layer 1"
     inkscape:groupmode="layer"
     id="layer1"
     transform="translate(0,-924.36216)">
    <path
       style="fill:#5e35b1;fill-opacity:1"
       d="m 54.596469,1052.294 c -21.393948,-0.778 -34.950465,-2.2681 -40.860556,-4.4913 -3.501912,-1.3173 -6.8239686,-4.0549 -8.274174,-6.8183 -2.6229336,-4.9982 -4.0485918,-13.2747 -5.11608356,-29.7008 -0.4123405,-6.3449 -0.409156,-33.50123 0.004782,-40.78331 1.19449136,-21.01368 2.82547736,-31.04514 5.78593306,-35.58665 1.1851031,-1.81802 3.2054646,-3.86456 4.6508435,-4.71111 4.110098,-2.40723 13.48806,-4.2563 25.908947,-5.10848 24.118425,-1.65474 59.31206,-0.38761 73.156989,2.63397 5.69087,1.24201 9.55758,3.44382 11.84617,6.74556 4.43677,6.4009 6.7045,26.73906 6.29074,56.41838 -0.35219,25.26264 -2.16441,42.62224 -5.12404,49.08424 -0.96667,2.1106 -2.82938,4.5253 -4.41216,5.7196 -4.26356,3.2171 -13.27257,5.0936 -29.43372,6.131 -5.71175,0.3666 -28.63431,0.6777 -34.423671,0.4672 z"
       id="path4233" />
    <g
       id="g4250">
      <path
         id="path4231"
         d="m 93.823457,1025.0835 c 2.080817,-0.7827 3.464298,-1.6566 5.171687,-3.2666 5.677306,-5.3535 7.768486,-15.0542 5.021396,-23.2937 -1.07569,-3.22649 -2.53931,-5.66149 -4.731887,-7.87246 -2.953676,-2.97841 -6.120504,-4.36526 -9.888982,-4.33065 -6.871215,0.0631 -12.793713,5.56911 -14.875582,13.82941 -2.890812,11.4702 3.031712,23.45 12.622397,25.5319 1.696749,0.3683 4.86653,0.085 6.680971,-0.5979 z"
         style="fill:#ffb300;fill-opacity:1" />
      <path
         id="path4241"
         d="m 101.77703,1008.0444 c 0.54767,-0.6595 -0.0581,-6.7317 -0.84705,-8.49003 -0.1927,-0.42953 -0.47965,-1.19764 -0.63768,-1.70692 -0.15802,-0.50928 -0.562042,-1.33057 -0.897842,-1.8251 -0.335774,-0.49452 -0.610513,-0.98696 -0.610513,-1.09431 0,-0.43246 -2.846099,-3.47041 -4.072483,-4.34703 -1.63366,-1.16771 -4.775427,-2.6915 -5.549371,-2.6915 -1.065281,0 -1.544133,1.31104 -0.642659,1.75952 0.206542,0.10276 1.333135,0.64362 2.50354,1.20192 2.238315,1.06772 4.16211,2.71119 5.671844,4.84537 1.732775,2.44946 3.053317,6.69518 3.248619,10.44488 0.05797,1.1127 0.222135,1.9426 0.407605,2.0603 0.48403,0.3072 1.09642,0.2398 1.42599,-0.1571 z"
         style="fill:#ffffff;fill-opacity:1" />
    </g>
    <g
       id="g4245">
      <path
         id="path3393"
         d="m 42.993389,1006.9337 c 13.172449,-2.6558 31.175403,-15.1343 36.126954,-25.04087 1.621969,-3.24507 2.038833,-5.39682 1.623596,-8.38057 -1.390892,-9.99407 -9.328139,-19.76479 -17.885789,-22.01735 -3.874453,-1.01983 -7.345485,-0.76696 -12.630808,0.9202 -15.427062,4.92455 -25.18273,15.1852 -27.198981,28.60686 -1.753629,11.67332 3.745095,23.31973 12.290853,26.03213 1.484524,0.4712 5.01449,0.4158 7.674175,-0.1204 z"
         style="fill:#ffffff;fill-opacity:1" />
      <path
         id="path4237"
         d="m 53.572747,992.28891 c -0.838435,-0.19155 -2.196205,-0.68718 -3.017241,-1.1014 -4.57617,-2.30866 -7.434637,-6.31703 -8.107288,-11.36871 -0.972575,-7.30406 3.995875,-14.18623 11.435719,-15.84045 6.238445,-1.38709 12.933637,1.85632 15.882231,7.69397 1.982402,3.92476 1.974466,9.00934 -0.02028,12.95839 -1.663627,3.29368 -5.054271,6.20742 -8.463567,7.27318 -2.156924,0.67426 -5.674698,0.84993 -7.709675,0.38502 z"
         style="fill:#ffb300;fill-opacity:1" />
      <path
         id="path3395"
         d="m 65.305185,985.10052 c 0.758598,-0.40574 1.286294,-1.09504 2.306812,-3.01316 1.865813,-3.50689 1.663978,-6.62053 -0.653649,-10.08361 -1.695397,-2.5333 -5.11338,-5.38163 -6.457956,-5.38163 -1.324898,0 -2.267882,1.80126 -1.46014,2.78913 0.172119,0.2105 0.990926,0.90367 1.819573,1.54036 3.705489,2.84712 5.0039,6.31086 3.488683,9.30666 -0.347992,0.68806 -0.878517,1.66501 -1.178917,2.17099 -0.652798,1.09962 -0.430183,2.13121 0.568954,2.63644 0.770139,0.38943 0.89832,0.39228 1.56664,0.0348 z"
         style="fill:#ffffff;fill-opacity:1" />
    </g>
  </g>
</svg>
