<?xml version="1.0" encoding="UTF-8" standalone="no"?>
<!-- Created with Inkscape (http://www.inkscape.org/) -->

<svg
   xmlns:dc="http://purl.org/dc/elements/1.1/"
   xmlns:cc="http://creativecommons.org/ns#"
   xmlns:rdf="http://www.w3.org/1999/02/22-rdf-syntax-ns#"
   xmlns:svg="http://www.w3.org/2000/svg"
   xmlns="http://www.w3.org/2000/svg"
   xmlns:sodipodi="http://sodipodi.sourceforge.net/DTD/sodipodi-0.dtd"
   xmlns:inkscape="http://www.inkscape.org/namespaces/inkscape"
   width="128"
   height="128"
   viewBox="0 0 128 128"
   id="svg2"
   version="1.1"
   inkscape:version="0.91 r13725"
   sodipodi:docname="classic-single.svg">
  <defs
     id="defs4" />
  <sodipodi:namedview
     id="base"
     pagecolor="#ffffff"
     bordercolor="#666666"
     borderopacity="1.0"
     inkscape:pageopacity="0.0"
     inkscape:pageshadow="2"
     inkscape:zoom="2.8284271"
     inkscape:cx="12.093205"
     inkscape:cy="65.177519"
     inkscape:document-units="px"
     inkscape:current-layer="layer1"
     showgrid="false"
     units="px"
     inkscape:window-width="1366"
     inkscape:window-height="713"
     inkscape:window-x="0"
     inkscape:window-y="27"
     inkscape:window-maximized="1" />
  <metadata
     id="metadata7">
    <rdf:RDF>
      <cc:Work
         rdf:about="">
        <dc:format>image/svg+xml</dc:format>
        <dc:type
           rdf:resource="http://purl.org/dc/dcmitype/StillImage" />
        <dc:title />
      </cc:Work>
    </rdf:RDF>
  </metadata>
  <g
     inkscape:label="Layer 1"
     inkscape:groupmode="layer"
     id="layer1"
     transform="translate(0,-924.36216)">
    <path
       inkscape:connector-curvature="0"
       style="fill:#446cb3;fill-opacity:1"
       d="m 54.558273,1052.294 c -21.393948,-0.778 -34.950465,-2.2681 -40.860556,-4.4913 -3.501912,-1.3173 -6.8239684,-4.0549 -8.2741734,-6.8183 -2.622934,-4.9982 -4.048592,-13.2747 -5.11608401,-29.7008 -0.41234,-6.3449 -0.409156,-33.5012 0.0048,-40.7833 1.19449101,-21.0137 2.82547701,-31.04516 5.78593301,-35.58667 1.185103,-1.81802 3.205465,-3.86456 4.6508434,-4.71111 4.110098,-2.40723 13.48806,-4.2563 25.908947,-5.10848 24.118425,-1.65474 59.312065,-0.38761 73.156997,2.63397 5.69087,1.24201 9.55758,3.44382 11.84617,6.74556 4.43677,6.4009 6.7045,26.73903 6.29074,56.41843 -0.35219,25.2626 -2.16441,42.6222 -5.12404,49.0842 -0.96667,2.1106 -2.82938,4.5253 -4.41216,5.7196 -4.26356,3.2171 -13.27257,5.0936 -29.433732,6.131 -5.71175,0.3666 -28.634306,0.6777 -34.423667,0.4672 z"
       id="path4233" />
    <g
       id="g4138"
       transform="matrix(0.55513203,0,0,0.55513203,28.47155,439.69066)">
      <path
         inkscape:connector-curvature="0"
         id="rect4329"
         d="m 49.143204,955.86216 c -4.29426,0 -7.751372,3.45711 -7.751372,7.75137 l 0,15.33167 c 0.213111,-0.0174 0.42816,-0.0288 0.645947,-0.0288 l 43.924442,0 c 0.217762,0 0.432811,0.0113 0.645948,0.0288 l 0,-15.33167 c 0,-4.29426 -3.457138,-7.75137 -7.751372,-7.75137 l -29.713593,0 z"
         style="fill:#ffffff;fill-opacity:1;stroke:#446cb3;stroke-width:3;stroke-miterlimit:4;stroke-dasharray:none;stroke-opacity:1" />
      <path
         inkscape:connector-curvature="0"
         id="rect4263"
         d="m 34.286407,997.37237 0,14.09373 0,8.1042 c 0,0.7157 0.576186,1.2919 1.291896,1.2919 l 6.942904,0 c 0.71571,0 1.291895,-0.5762 1.291895,-1.2919 l 0,-8.1042 40.374262,0 0,8.1042 c 0,0.7157 0.576185,1.2919 1.291895,1.2919 l 6.942439,0 c 0.71571,0 1.291895,-0.5762 1.291895,-1.2919 l 0,-8.1042 0,-2.7402 0,-11.35353 -59.427186,0 z"
         style="fill:#ffffff;fill-opacity:1;stroke:#446cb3;stroke-width:3;stroke-miterlimit:4;stroke-dasharray:none;stroke-opacity:1" />
      <path
         inkscape:connector-curvature="0"
         id="rect4259-6"
         d="m 42.037779,978.91644 c -4.29426,0 -7.751372,3.45711 -7.751372,7.75137 l 0,10.70456 59.427186,0 0,-10.70456 c 0,-4.29426 -3.457137,-7.75137 -7.751372,-7.75137 l -43.924442,0 z"
         style="fill:#ffffff;fill-opacity:1;stroke:#446cb3;stroke-width:3;stroke-miterlimit:4;stroke-dasharray:none;stroke-opacity:1" />
      <path
         inkscape:connector-curvature="0"
         id="rect4364"
         d="m 60.67337,965.25717 c -7.1571,0 -12.918954,5.76185 -12.918954,12.91895 l 0,0.76908 32.491168,0 0,-0.76908 c 0,-7.1571 -5.761853,-12.91895 -12.918953,-12.91895 l -6.653261,0 z"
         style="fill:#ffffff;fill-opacity:1;stroke:#446cb3;stroke-width:3;stroke-miterlimit:4;stroke-dasharray:none;stroke-opacity:1" />
    </g>
  </g>
</svg>
