<?xml version="1.0" encoding="UTF-8" standalone="no"?>
<!-- Created with Inkscape (http://www.inkscape.org/) -->

<svg
   xmlns:dc="http://purl.org/dc/elements/1.1/"
   xmlns:cc="http://creativecommons.org/ns#"
   xmlns:rdf="http://www.w3.org/1999/02/22-rdf-syntax-ns#"
   xmlns:svg="http://www.w3.org/2000/svg"
   xmlns="http://www.w3.org/2000/svg"
   xmlns:sodipodi="http://sodipodi.sourceforge.net/DTD/sodipodi-0.dtd"
   xmlns:inkscape="http://www.inkscape.org/namespaces/inkscape"
   width="128"
   height="128"
   viewBox="0 0 128 128"
   id="svg2"
   version="1.1"
   inkscape:version="0.91 r13725"
   sodipodi:docname="deluxe-single.svg">
  <defs
     id="defs4" />
  <sodipodi:namedview
     id="base"
     pagecolor="#ffffff"
     bordercolor="#666666"
     borderopacity="1.0"
     inkscape:pageopacity="0.0"
     inkscape:pageshadow="2"
     inkscape:zoom="1.4142136"
     inkscape:cx="-36.032985"
     inkscape:cy="100.89954"
     inkscape:document-units="px"
     inkscape:current-layer="layer1"
     showgrid="false"
     units="px"
     inkscape:window-width="1366"
     inkscape:window-height="713"
     inkscape:window-x="0"
     inkscape:window-y="27"
     inkscape:window-maximized="1"
     showguides="true"
     inkscape:guide-bbox="true"
     guidetolerance="10000"
     inkscape:snap-perpendicular="true"
     inkscape:snap-tangential="true" />
  <metadata
     id="metadata7">
    <rdf:RDF>
      <cc:Work
         rdf:about="">
        <dc:format>image/svg+xml</dc:format>
        <dc:type
           rdf:resource="http://purl.org/dc/dcmitype/StillImage" />
        <dc:title />
      </cc:Work>
    </rdf:RDF>
  </metadata>
  <g
     inkscape:label="Layer 1"
     inkscape:groupmode="layer"
     id="layer1"
     transform="translate(0,-924.36216)">
    <path
       inkscape:connector-curvature="0"
       style="fill:#f2784b;fill-opacity:1"
       d="m 54.558271,1052.294 c -21.393948,-0.778 -34.950465,-2.2681 -40.860556,-4.4913 -3.501912,-1.3173 -6.8239684,-4.0549 -8.2741734,-6.8183 -2.622934,-4.9982 -4.048592,-13.2747 -5.11608401,-29.7008 -0.41234,-6.3449 -0.409156,-33.5012 0.0048,-40.7833 1.19449101,-21.0137 2.82547701,-31.04516 5.78593301,-35.58667 1.185103,-1.81802 3.205465,-3.86456 4.6508434,-4.71111 4.110098,-2.40723 13.48806,-4.2563 25.908947,-5.10848 24.118425,-1.65474 59.312065,-0.38761 73.156999,2.63397 5.69087,1.24201 9.55758,3.44382 11.84617,6.74556 4.43677,6.4009 6.7045,26.73903 6.29074,56.41843 -0.35219,25.2626 -2.16441,42.6222 -5.12404,49.0842 -0.96667,2.1106 -2.82938,4.5253 -4.41216,5.7196 -4.26356,3.2171 -13.27257,5.0936 -29.433734,6.131 -5.71175,0.3666 -28.634306,0.6777 -34.423667,0.4672 z"
       id="path4233" />
    <path
       style="fill:#ffffff;fill-opacity:1"
       d="m 48.705912,1006.7903 c -0.446583,-0.4466 -0.446583,-0.4466 -0.446583,-4.2037 0,-1.8786 -0.01405,-3.70874 -0.01405,-3.70874 0,0 7.87851,-0.032 15.742974,-0.015 7.864464,0.017 15.747336,0.01 15.747336,0.01 0,0 0.0046,1.89424 0.01649,3.74464 0.0349,3.7217 0.0349,3.7217 -0.413746,4.1704 -0.444783,0.4447 -0.45893,0.4486 -1.641844,0.4486 -1.132277,0 -1.215095,-0.02 -1.622149,-0.3828 -0.428952,-0.3827 -0.428952,-0.3827 -0.494626,-2.0687 -0.06568,-1.686 -0.06568,-1.686 -11.558632,-1.686 -11.492951,0 -11.492951,0 -11.558628,1.686 -0.06567,1.686 -0.06567,1.686 -0.49463,2.0687 -0.40705,0.3632 -0.48987,0.3828 -1.622146,0.3828 -1.181835,0 -1.197448,-0.01 -1.639777,-0.4466 z m -0.444306,-12.32654 c 0.0015,-1.4592 0.06938,-2.5829 0.190711,-3.1555 0.103631,-0.4891 0.378888,-1.2465 0.611679,-1.6833 0.232784,-0.4367 0.734706,-1.1055 1.115378,-1.4862 0.386644,-0.3867 1.070077,-0.8782 1.548443,-1.1137 0.470973,-0.2319 1.257463,-0.5066 1.747756,-0.6105 0.729099,-0.15449 2.649548,-0.18888 10.54552,-0.18888 7.895976,0 9.816425,0.0343 10.545522,0.18888 0.490295,0.1039 1.276786,0.3786 1.747757,0.6105 0.486876,0.2397 1.163119,0.7284 1.567449,1.1327 0.408335,0.4083 0.902822,1.0943 1.161323,1.611 0.248671,0.497 0.517187,1.3009 0.599852,1.7956 0.08256,0.4942 0.13274,1.838 0.111922,2.9974 -0.01887,1.0507 -0.02899,2.1142 -0.0043,2.1657 0,0 -7.897891,-0.048 -15.762358,-0.031 -7.864465,0.017 -15.753902,-0.026 -15.753902,-0.026 0,0 0.02612,-1.0739 0.02725,-2.207 z m 2.154671,-10.52067 c -0.03828,-0.0998 -0.05125,-2.00702 -0.02882,-4.23845 0.03904,-3.88599 0.05358,-4.08885 0.344747,-4.81185 0.172893,-0.4293 0.590739,-1.06856 0.968935,-1.48237 0.365721,-0.40016 0.925177,-0.88007 1.243234,-1.06646 0.318058,-0.18639 0.936079,-0.45026 1.373377,-0.58636 0.437298,-0.1361 1.132975,-0.24745 1.545952,-0.24745 0.602686,0 0.84015,-0.0669 1.203269,-0.3389 0.248818,-0.18639 0.79844,-0.51544 1.221379,-0.73123 0.422939,-0.21579 1.309541,-0.51891 1.970221,-0.67359 1.014268,-0.23747 1.599907,-0.28081 3.762528,-0.27848 1.863314,0.002 2.811843,0.0598 3.480724,0.21213 0.505689,0.11516 1.258445,0.33703 1.672789,0.49306 0.414343,0.15602 1.101521,0.51617 1.527064,0.80034 0.63832,0.42625 0.886655,0.51667 1.419133,0.51667 0.354979,0 0.984726,0.0884 1.399434,0.19639 0.414707,0.10802 0.999082,0.32142 1.298603,0.47422 0.29952,0.15281 0.861186,0.57726 1.248145,0.94323 0.43685,0.41315 0.863735,0.99271 1.126096,1.52883 0.422535,0.86344 0.422535,0.86344 0.422535,5.13226 0,4.26882 0,4.26882 -3.07516,4.26882 -3.075163,0 -3.075163,0 -3.24514,-0.83332 -0.09349,-0.45833 -0.292333,-1.08607 -0.441878,-1.39497 -0.149542,-0.3089 -0.521534,-0.80916 -0.826649,-1.11162 -0.305112,-0.30246 -0.90939,-0.72286 -1.342839,-0.93426 -0.43345,-0.21133 -1.172282,-0.4869 -1.64185,-0.61234 -0.646864,-0.17278 -1.378975,-0.22801 -3.021007,-0.22801 -1.653252,0 -2.369724,0.0546 -3.021005,0.23027 -0.469571,0.12661 -1.2084,0.39637 -1.64185,0.59945 -0.433449,0.20304 -1.048389,0.6296 -1.366536,0.94785 -0.318147,0.31825 -0.688505,0.82572 -0.823024,1.12771 -0.134519,0.30199 -0.32015,0.92258 -0.412514,1.37917 -0.167933,0.83007 -0.167933,0.83007 -3.219116,0.86532 -2.49774,0.029 -3.063808,0 -3.120772,-0.14606 z"
       id="path4487"
       inkscape:connector-curvature="0"
       sodipodi:nodetypes="ccccccsscssscscssssssssssssccccsssssssssssssssssssssssssssssssssss" />
  </g>
</svg>
