<?xml version="1.0" encoding="UTF-8" standalone="no"?>
<!-- Created with Inkscape (http://www.inkscape.org/) -->

<svg
   xmlns:dc="http://purl.org/dc/elements/1.1/"
   xmlns:cc="http://creativecommons.org/ns#"
   xmlns:rdf="http://www.w3.org/1999/02/22-rdf-syntax-ns#"
   xmlns:svg="http://www.w3.org/2000/svg"
   xmlns="http://www.w3.org/2000/svg"
   xmlns:sodipodi="http://sodipodi.sourceforge.net/DTD/sodipodi-0.dtd"
   xmlns:inkscape="http://www.inkscape.org/namespaces/inkscape"
   width="128"
   height="128"
   viewBox="0 0 128 128"
   id="svg2"
   version="1.1"
   inkscape:version="0.91 r13725"
   sodipodi:docname="deluxe-double.svg">
  <defs
     id="defs4" />
  <sodipodi:namedview
     id="base"
     pagecolor="#ffffff"
     bordercolor="#666666"
     borderopacity="1.0"
     inkscape:pageopacity="0.0"
     inkscape:pageshadow="2"
     inkscape:zoom="2.8284271"
     inkscape:cx="9.9548097"
     inkscape:cy="76.077928"
     inkscape:document-units="px"
     inkscape:current-layer="layer1"
     showgrid="false"
     units="px"
     inkscape:window-width="1366"
     inkscape:window-height="713"
     inkscape:window-x="0"
     inkscape:window-y="27"
     inkscape:window-maximized="1"
     showguides="true"
     inkscape:guide-bbox="true"
     guidetolerance="10000"
     inkscape:snap-perpendicular="true"
     inkscape:snap-tangential="true" />
  <metadata
     id="metadata7">
    <rdf:RDF>
      <cc:Work
         rdf:about="">
        <dc:format>image/svg+xml</dc:format>
        <dc:type
           rdf:resource="http://purl.org/dc/dcmitype/StillImage" />
        <dc:title></dc:title>
      </cc:Work>
    </rdf:RDF>
  </metadata>
  <g
     inkscape:label="Layer 1"
     inkscape:groupmode="layer"
     id="layer1"
     transform="translate(0,-924.36216)">
    <path
       inkscape:connector-curvature="0"
       style="fill:#f2784b;fill-opacity:1"
       d="m 54.558271,1052.294 c -21.393948,-0.778 -34.950465,-2.2681 -40.860556,-4.4913 -3.501912,-1.3173 -6.8239684,-4.0549 -8.2741734,-6.8183 -2.622934,-4.9982 -4.048592,-13.2747 -5.11608401,-29.7008 -0.41234,-6.3449 -0.409156,-33.5012 0.0048,-40.7833 1.19449101,-21.0137 2.82547701,-31.04516 5.78593301,-35.58667 1.185103,-1.81802 3.205465,-3.86456 4.6508434,-4.71111 4.110098,-2.40723 13.48806,-4.2563 25.908947,-5.10848 24.118425,-1.65474 59.312065,-0.38761 73.156999,2.63397 5.69087,1.24201 9.55758,3.44382 11.84617,6.74556 4.43677,6.4009 6.7045,26.73903 6.29074,56.41843 -0.35219,25.2626 -2.16441,42.6222 -5.12404,49.0842 -0.96667,2.1106 -2.82938,4.5253 -4.41216,5.7196 -4.26356,3.2171 -13.27257,5.0936 -29.433734,6.131 -5.71175,0.3666 -28.634306,0.6777 -34.423667,0.4672 z"
       id="path4233" />
    <g
       id="g4206"
       transform="translate(18.296216,-4.0930261e-6)">
      <path
         sodipodi:nodetypes="ccccccsscssscscssssssssssssccccsssssssssssssssssssssssssssssssssss"
         inkscape:connector-curvature="0"
         id="path4487"
         d="m 48.706039,1006.7903 c -0.446583,-0.4466 -0.446583,-0.4466 -0.446583,-4.2037 0,-1.8786 -0.01405,-3.70877 -0.01405,-3.70877 0,0 7.87851,-0.032 15.742974,-0.015 7.864464,0.017 15.747336,0.01 15.747336,0.01 0,0 0.0046,1.89427 0.01649,3.74467 0.0349,3.7217 0.0349,3.7217 -0.413746,4.1704 -0.444783,0.4447 -0.45893,0.4486 -1.641844,0.4486 -1.132277,0 -1.215095,-0.02 -1.622149,-0.3828 -0.428952,-0.3827 -0.428952,-0.3827 -0.494626,-2.0687 -0.06568,-1.686 -0.06568,-1.686 -11.558632,-1.686 -11.492951,0 -11.492951,0 -11.558628,1.686 -0.06567,1.686 -0.06567,1.686 -0.49463,2.0687 -0.40705,0.3632 -0.48987,0.3828 -1.622146,0.3828 -1.181835,0 -1.197448,-0.01 -1.639777,-0.4466 z m -0.444306,-12.32657 c 0.0015,-1.4592 0.06938,-2.5829 0.190711,-3.1555 0.103631,-0.4891 0.378888,-1.2465 0.611679,-1.6833 0.232784,-0.4367 0.734706,-1.1055 1.115378,-1.4862 0.386644,-0.3867 1.070077,-0.8782 1.548443,-1.1137 0.470973,-0.2319 1.257463,-0.5066 1.747756,-0.6105 0.729099,-0.15449 2.649548,-0.18888 10.54552,-0.18888 7.895976,0 9.816425,0.0343 10.545522,0.18888 0.490295,0.1039 1.276786,0.3786 1.747757,0.6105 0.486876,0.2397 1.163119,0.7284 1.567449,1.1327 0.408335,0.4083 0.902822,1.0943 1.161323,1.611 0.248671,0.497 0.517187,1.3009 0.599852,1.7956 0.08256,0.4942 0.13274,1.838 0.111922,2.9974 -0.01887,1.0507 -0.02899,2.1142 -0.0043,2.1657 0,0 -7.897891,-0.048 -15.762358,-0.031 -7.864465,0.017 -15.753902,-0.026 -15.753902,-0.026 0,0 0.02612,-1.0739 0.02725,-2.207 z m 2.154671,-10.52067 c -0.03828,-0.0998 -0.05125,-2.00702 -0.02882,-4.23845 0.03904,-3.88599 0.05358,-4.08885 0.344747,-4.81185 0.172893,-0.4293 0.590739,-1.06856 0.968935,-1.48237 0.365721,-0.40016 0.925177,-0.88007 1.243234,-1.06646 0.318058,-0.18639 0.936079,-0.45026 1.373377,-0.58636 0.437298,-0.1361 1.132975,-0.24745 1.545952,-0.24745 0.602686,0 0.84015,-0.0669 1.203269,-0.3389 0.248818,-0.18639 0.79844,-0.51544 1.221379,-0.73123 0.422939,-0.21579 1.309541,-0.51891 1.970221,-0.67359 1.014268,-0.23747 1.599907,-0.28081 3.762528,-0.27848 1.863314,0.002 2.811843,0.0598 3.480724,0.21213 0.505689,0.11516 1.258445,0.33703 1.672789,0.49306 0.414343,0.15602 1.101521,0.51617 1.527064,0.80034 0.63832,0.42625 0.886655,0.51667 1.419133,0.51667 0.354979,0 0.984726,0.0884 1.399434,0.19639 0.414707,0.10802 0.999082,0.32142 1.298603,0.47422 0.29952,0.15281 0.861186,0.57726 1.248145,0.94323 0.43685,0.41315 0.863735,0.99271 1.126096,1.52883 0.422535,0.86344 0.422535,0.86344 0.422535,5.13226 0,4.26882 0,4.26882 -3.07516,4.26882 -3.075163,0 -3.075163,0 -3.24514,-0.83332 -0.09349,-0.45833 -0.292333,-1.08607 -0.441878,-1.39497 -0.149542,-0.3089 -0.521534,-0.80916 -0.826649,-1.11162 -0.305112,-0.30246 -0.90939,-0.72286 -1.342839,-0.93426 -0.43345,-0.21133 -1.172282,-0.4869 -1.64185,-0.61234 -0.646864,-0.17278 -1.378975,-0.22801 -3.021007,-0.22801 -1.653252,0 -2.369724,0.0546 -3.021005,0.23027 -0.469571,0.12661 -1.2084,0.39637 -1.64185,0.59945 -0.433449,0.20304 -1.048389,0.6296 -1.366536,0.94785 -0.318147,0.31825 -0.688505,0.82572 -0.823024,1.12771 -0.134519,0.30199 -0.32015,0.92258 -0.412514,1.37917 -0.167933,0.83007 -0.167933,0.83007 -3.219116,0.86532 -2.49774,0.029 -3.063808,0 -3.120772,-0.14606 z"
         style="fill:#ffffff;fill-opacity:1" />
      <path
         sodipodi:nodetypes="ccccccsscssscscssssssssssssccccsssssssssssssssssssssssssssssssssss"
         inkscape:connector-curvature="0"
         id="path4487-3"
         d="m 12.113049,1006.7903 c -0.44658,-0.4466 -0.44658,-0.4466 -0.44658,-4.2037 0,-1.8786 -0.014,-3.70878 -0.014,-3.70878 0,0 7.87851,-0.032 15.74297,-0.015 7.86446,0.017 15.74734,0.01 15.74734,0.01 0,0 0.005,1.89428 0.0165,3.74468 0.0349,3.7217 0.0349,3.7217 -0.41375,4.1704 -0.44478,0.4447 -0.45893,0.4486 -1.64184,0.4486 -1.13228,0 -1.2151,-0.02 -1.62215,-0.3828 -0.42895,-0.3827 -0.42895,-0.3827 -0.49463,-2.0687 -0.0657,-1.686 -0.0657,-1.686 -11.55863,-1.686 -11.49295,0 -11.49295,0 -11.55863,1.686 -0.0657,1.686 -0.0657,1.686 -0.49463,2.0687 -0.40705,0.3632 -0.48987,0.3828 -1.62214,0.3828 -1.18184,0 -1.19745,-0.01 -1.63978,-0.4466 z m -0.44431,-12.32658 c 10e-4,-1.4592 0.0694,-2.5829 0.19071,-3.1555 0.10364,-0.4891 0.37889,-1.2465 0.61168,-1.6833 0.23279,-0.4367 0.73471,-1.1055 1.11538,-1.4862 0.38665,-0.3867 1.07008,-0.8782 1.54844,-1.1137 0.47098,-0.2319 1.25747,-0.5066 1.74776,-0.6105 0.7291,-0.1545 2.64955,-0.1889 10.54552,-0.1889 7.89598,0 9.81643,0.034 10.54552,0.1889 0.4903,0.1039 1.27679,0.3786 1.74776,0.6105 0.48688,0.2397 1.16312,0.7284 1.56745,1.1327 0.40833,0.4083 0.90282,1.0943 1.16132,1.611 0.24867,0.497 0.51719,1.3009 0.59985,1.7956 0.0826,0.4942 0.13274,1.838 0.11193,2.9974 -0.0189,1.0507 -0.029,2.1142 -0.004,2.1657 0,0 -7.8979,-0.048 -15.76236,-0.031 -7.86447,0.017 -15.7539,-0.026 -15.7539,-0.026 0,0 0.0261,-1.0739 0.0272,-2.207 z m 2.15467,-10.5207 c -0.0383,-0.1 -0.0512,-2.007 -0.0288,-4.2384 0.039,-3.886 0.0536,-4.0889 0.34475,-4.8119 0.17289,-0.4293 0.59074,-1.0686 0.96894,-1.4824 0.36572,-0.4001 0.92517,-0.88 1.24323,-1.0664 0.31806,-0.1864 0.93608,-0.4503 1.37338,-0.5864 0.4373,-0.1361 1.13297,-0.2474 1.54595,-0.2474 0.60269,0 0.84015,-0.067 1.20327,-0.3389 0.24882,-0.1864 0.79844,-0.5155 1.22138,-0.7313 0.42294,-0.2158 1.30954,-0.5189 1.97022,-0.6736 1.01427,-0.2374 1.59991,-0.2808 3.76253,-0.2784 1.86331,0 2.81184,0.06 3.48072,0.2121 0.50569,0.1152 1.25845,0.337 1.67279,0.4931 0.41434,0.156 1.10152,0.5161 1.52706,0.8003 0.63832,0.4262 0.88666,0.5167 1.41914,0.5167 0.35498,0 0.98472,0.088 1.39943,0.1964 0.41471,0.108 0.99908,0.3214 1.2986,0.4742 0.29952,0.1528 0.86119,0.5772 1.24815,0.9432 0.43685,0.4132 0.86373,0.9927 1.12609,1.5288 0.42254,0.8635 0.42254,0.8635 0.42254,5.1323 0,4.2688 0,4.2688 -3.07516,4.2688 -3.07516,0 -3.07516,0 -3.24514,-0.8333 -0.0935,-0.4583 -0.29233,-1.0861 -0.44188,-1.395 -0.14954,-0.3089 -0.52153,-0.8091 -0.82665,-1.1116 -0.30511,-0.3025 -0.90939,-0.7229 -1.34284,-0.9343 -0.43345,-0.2113 -1.17228,-0.4869 -1.64185,-0.6123 -0.64686,-0.1728 -1.37897,-0.228 -3.021,-0.228 -1.65326,0 -2.36973,0.055 -3.02101,0.2303 -0.46957,0.1266 -1.2084,0.3963 -1.64185,0.5994 -0.43345,0.2031 -1.04839,0.6296 -1.36653,0.9479 -0.31815,0.3182 -0.68851,0.8257 -0.82303,1.1277 -0.13452,0.302 -0.32015,0.9226 -0.41251,1.3791 -0.16794,0.8301 -0.16794,0.8301 -3.21912,0.8654 -2.49774,0.029 -3.06381,0 -3.12077,-0.1461 z"
         style="fill:#ffffff;fill-opacity:1" />
    </g>
  </g>
</svg>
