<?xml version="1.0" encoding="UTF-8" standalone="no"?>
<!-- Created with Inkscape (http://www.inkscape.org/) -->

<svg
   xmlns:dc="http://purl.org/dc/elements/1.1/"
   xmlns:cc="http://creativecommons.org/ns#"
   xmlns:rdf="http://www.w3.org/1999/02/22-rdf-syntax-ns#"
   xmlns:svg="http://www.w3.org/2000/svg"
   xmlns="http://www.w3.org/2000/svg"
   xmlns:sodipodi="http://sodipodi.sourceforge.net/DTD/sodipodi-0.dtd"
   xmlns:inkscape="http://www.inkscape.org/namespaces/inkscape"
   width="128"
   height="128"
   viewBox="0 0 128 128"
   id="svg2"
   version="1.1"
   inkscape:version="0.91 r13725"
   sodipodi:docname="gym.svg">
  <defs
     id="defs4" />
  <sodipodi:namedview
     id="base"
     pagecolor="#ffffff"
     bordercolor="#666666"
     borderopacity="1.0"
     inkscape:pageopacity="0.0"
     inkscape:pageshadow="2"
     inkscape:zoom="1.979899"
     inkscape:cx="21.206644"
     inkscape:cy="89.027161"
     inkscape:document-units="px"
     inkscape:current-layer="layer1"
     showgrid="false"
     units="px"
     showguides="false"
     inkscape:window-width="1366"
     inkscape:window-height="713"
     inkscape:window-x="0"
     inkscape:window-y="27"
     inkscape:window-maximized="1" />
  <metadata
     id="metadata7">
    <rdf:RDF>
      <cc:Work
         rdf:about="">
        <dc:format>image/svg+xml</dc:format>
        <dc:type
           rdf:resource="http://purl.org/dc/dcmitype/StillImage" />
        <dc:title></dc:title>
      </cc:Work>
    </rdf:RDF>
  </metadata>
  <g
     inkscape:label="Layer 1"
     inkscape:groupmode="layer"
     id="layer1"
     transform="translate(0,-924.36216)">
    <path
       style="fill:#14cad4;fill-opacity:1"
       d="m 54.596469,1052.294 c -21.393948,-0.778 -34.950465,-2.2681 -40.860556,-4.4913 -3.501912,-1.3173 -6.8239686,-4.0549 -8.274174,-6.8183 -2.6229336,-4.9982 -4.0485918,-13.2747 -5.11608356,-29.7008 -0.4123405,-6.3449 -0.409156,-33.50123 0.004782,-40.78331 1.19449136,-21.01368 2.82547736,-31.04514 5.78593306,-35.58665 1.1851031,-1.81802 3.2054646,-3.86456 4.6508435,-4.71111 4.110098,-2.40723 13.48806,-4.2563 25.908947,-5.10848 24.118425,-1.65474 59.31206,-0.38761 73.156989,2.63397 5.69087,1.24201 9.55758,3.44382 11.84617,6.74556 4.43677,6.4009 6.7045,26.73906 6.29074,56.41838 -0.35219,25.26264 -2.16441,42.62224 -5.12404,49.08424 -0.96667,2.1106 -2.82938,4.5253 -4.41216,5.7196 -4.26356,3.2171 -13.27257,5.0936 -29.43372,6.131 -5.71175,0.3666 -28.63431,0.6777 -34.423671,0.4672 z"
       id="path4233" />
    <g
       id="g4414"
       transform="matrix(0.2191717,0,0,0.2191717,-35.528651,772.84869)">
      <rect
         y="969.30884"
         x="241.42645"
         height="28"
         width="425.37247"
         id="rect4322"
         style="fill:#cdcdcd;fill-opacity:1" />
      <g
         id="g4404">
        <rect
           style="fill:#5b6071;fill-opacity:1"
           id="rect4322-6-7-5"
           width="100"
           height="30"
           x="-1033.3088"
           y="262.38"
           transform="matrix(0,-1,1,0,0,0)" />
        <rect
           style="fill:#42485b;fill-opacity:1"
           id="rect4322-6-7"
           width="160"
           height="30"
           x="-1063.3088"
           y="291.51401"
           transform="matrix(0,-1,1,0,0,0)" />
        <rect
           style="fill:#373c4b;fill-opacity:1"
           id="rect4322-6"
           width="250"
           height="30"
           x="-1108.3088"
           y="320.51419"
           transform="matrix(0,-1,1,0,0,0)" />
      </g>
      <g
         id="g4409">
        <rect
           style="fill:#5b6071;fill-opacity:1"
           id="rect4322-6-7-5-2"
           width="100"
           height="30"
           x="933.30884"
           y="-646.03137"
           transform="matrix(0,1,-1,0,0,0)" />
        <rect
           style="fill:#42485b;fill-opacity:1"
           id="rect4322-6-7-6"
           width="160"
           height="30"
           x="903.30884"
           y="-616.8974"
           transform="matrix(0,1,-1,0,0,0)" />
        <rect
           style="fill:#373c4b;fill-opacity:1"
           id="rect4322-6-5"
           width="250"
           height="30"
           x="858.30884"
           y="-587.89722"
           transform="matrix(0,1,-1,0,0,0)" />
      </g>
    </g>
  </g>
</svg>
