<?xml version="1.0" encoding="UTF-8" standalone="no"?>
<!-- Created with Inkscape (http://www.inkscape.org/) -->

<svg
   xmlns:dc="http://purl.org/dc/elements/1.1/"
   xmlns:cc="http://creativecommons.org/ns#"
   xmlns:rdf="http://www.w3.org/1999/02/22-rdf-syntax-ns#"
   xmlns:svg="http://www.w3.org/2000/svg"
   xmlns="http://www.w3.org/2000/svg"
   xmlns:sodipodi="http://sodipodi.sourceforge.net/DTD/sodipodi-0.dtd"
   xmlns:inkscape="http://www.inkscape.org/namespaces/inkscape"
   width="128"
   height="128"
   viewBox="0 0 128 128"
   id="svg2"
   version="1.1"
   inkscape:version="0.91 r13725"
   sodipodi:docname="standard-double.svg">
  <defs
     id="defs4" />
  <sodipodi:namedview
     id="base"
     pagecolor="#ffffff"
     bordercolor="#666666"
     borderopacity="1.0"
     inkscape:pageopacity="0.0"
     inkscape:pageshadow="2"
     inkscape:zoom="2.8284271"
     inkscape:cx="9.2272152"
     inkscape:cy="60.888398"
     inkscape:document-units="px"
     inkscape:current-layer="layer1"
     showgrid="false"
     units="px"
     inkscape:window-width="1366"
     inkscape:window-height="713"
     inkscape:window-x="0"
     inkscape:window-y="27"
     inkscape:window-maximized="1"
     showguides="true"
     inkscape:guide-bbox="true"
     guidetolerance="10000"
     inkscape:snap-perpendicular="true"
     inkscape:snap-tangential="true" />
  <metadata
     id="metadata7">
    <rdf:RDF>
      <cc:Work
         rdf:about="">
        <dc:format>image/svg+xml</dc:format>
        <dc:type
           rdf:resource="http://purl.org/dc/dcmitype/StillImage" />
        <dc:title></dc:title>
      </cc:Work>
    </rdf:RDF>
  </metadata>
  <g
     inkscape:label="Layer 1"
     inkscape:groupmode="layer"
     id="layer1"
     transform="translate(0,-924.36216)">
    <path
       inkscape:connector-curvature="0"
       style="fill:#1bbc9b;fill-opacity:1"
       d="m 54.55827,1052.294 c -21.393947,-0.778 -34.950464,-2.2681 -40.860555,-4.4913 -3.501912,-1.3173 -6.8239684,-4.0549 -8.2741734,-6.8183 -2.622934,-4.9982 -4.048592,-13.2747 -5.11608401,-29.7008 -0.41234,-6.3449 -0.409156,-33.50119 0.0048,-40.78329 1.19449101,-21.0137 2.82547701,-31.0452 5.78593301,-35.5867 1.185103,-1.818 3.205465,-3.8645 4.6508434,-4.7111 4.110098,-2.4072 13.48806,-4.2563 25.908947,-5.1085 24.118429,-1.6547 59.312069,-0.3876 73.156999,2.634 5.69087,1.242 9.55758,3.4438 11.84617,6.7456 4.43677,6.4009 6.7045,26.739 6.29074,56.4184 -0.35219,25.26259 -2.16441,42.62219 -5.12404,49.08419 -0.96667,2.1106 -2.82938,4.5253 -4.41216,5.7196 -4.26356,3.2171 -13.27257,5.0936 -29.43373,6.131 -5.71175,0.3666 -28.63431,0.6777 -34.42367,0.4672 z"
       id="path4233" />
    <g
       id="g4197"
       transform="translate(18.473465,4.9999999e-6)">
      <path
         sodipodi:nodetypes="scscccsssccsssssccsscccssscscssscsssssccsscscsssscsccsssccscsssccsscsssssscccssssccscssccscsss"
         inkscape:connector-curvature="0"
         id="path4443"
         d="m 47.97687,1007.0857 c -0.152683,-0.084 -0.355679,-0.2497 -0.451105,-0.3693 -0.133048,-0.1668 -0.173504,-1.684 -0.173504,-6.507 0,-3.14479 0.0194,-4.56379 0.01658,-6.18599 2.025551,-0.01 8.280382,-0.021 16.591153,-0.01 8.310771,0.018 15.507578,0 16.678896,-0.01 -0.0076,0.87968 -0.02548,3.1164 -0.0074,6.25919 0.03612,6.2857 0.03612,6.2857 -0.305993,6.6278 -0.188163,0.1881 -0.466936,0.3421 -0.619495,0.3421 -0.152562,0 -0.429612,-0.069 -0.615669,-0.1542 -0.18606,-0.085 -0.40742,-0.2877 -0.491915,-0.451 -0.0845,-0.1634 -0.169434,-1.0777 -0.188753,-2.0321 -0.03512,-1.735 -0.03512,-1.735 -14.401133,-1.735 -14.366009,0 -14.366009,0 -14.439214,1.8045 -0.04026,0.9924 -0.121771,1.9052 -0.181137,2.0285 -0.05936,0.1233 -0.263591,0.295 -0.453836,0.3817 -0.190246,0.087 -0.421038,0.1557 -0.512872,0.1534 -0.09183,0 -0.291892,-0.073 -0.444575,-0.1561 z m -0.624609,-17.81399 c 0,-2.2341 0.02206,-2.4517 0.274074,-2.7037 0.150742,-0.1508 0.436629,-0.31489 0.635304,-0.36479 0.201725,-0.0505 0.502962,-0.0145 0.682207,0.0811 0.176543,0.0945 0.39034,0.32399 0.475116,0.51009 0.08477,0.1861 0.154133,0.835 0.154133,1.4422 0,0.6071 0.0541,1.1039 0.120218,1.1039 0.06612,0 0.716062,-0.2823 1.444322,-0.6272 0.728258,-0.345 2.063915,-0.8695 2.968127,-1.1656 0.904213,-0.2962 2.281963,-0.67 3.061668,-0.8309 0.779704,-0.1608 1.997692,-0.35349 2.706639,-0.42819 0.708947,-0.0747 2.61309,-0.1369 4.231428,-0.13824 1.860289,0 3.539946,0.076 4.567112,0.21061 0.893571,0.11722 2.255295,0.36262 3.026051,0.54552 0.770758,0.1828 1.963525,0.5296 2.650595,0.7707 0.687071,0.241 1.833987,0.7132 2.548705,1.0493 0.714718,0.3361 1.354941,0.5768 1.422719,0.5349 0.06778,-0.042 0.123237,-0.6062 0.123237,-1.254 0,-1.0656 0.0325,-1.2105 0.340696,-1.5187 0.187381,-0.18743 0.465517,-0.34071 0.618076,-0.34071 0.152562,0 0.429611,0.0693 0.615669,0.15416 0.186059,0.0847 0.409484,0.28775 0.496501,0.45115 0.104974,0.197 0.116678,1.0661 0.119353,2.5872 0.0021,1.1453 -0.0076,2.3273 -0.0076,2.3273 0.005,-0.01 -8.341981,-0.02 -16.652751,-0.01 -8.310772,0.018 -16.620197,10e-5 -16.620197,10e-5 0,0 -0.0015,-1.1796 -0.0015,-2.3944 z m 3.703832,-4.02987 c -0.214956,-0.26945 -0.636569,-0.64496 -0.936914,-0.83454 -0.546084,-0.34478 -0.546084,-0.34478 -0.546084,-7.1378 0,-4.68282 0.04787,-6.89808 0.154108,-7.13124 0.08476,-0.18603 0.306312,-0.4076 0.492337,-0.49234 0.186027,-0.0848 0.448436,-0.15411 0.583132,-0.15411 0.134695,0 0.380844,0.12666 0.546996,0.28145 0.166154,0.15479 0.332838,0.42024 0.370409,0.5899 0.03757,0.16966 0.08517,0.52709 0.105782,0.79428 0.03747,0.48579 0.03747,0.48579 12.182646,0.48579 12.145177,0 12.145177,0 12.226932,-0.69399 0.04497,-0.3817 0.12753,-0.79762 0.183476,-0.92421 0.05595,-0.12663 0.280012,-0.30407 0.497921,-0.3943 0.217909,-0.0903 0.527841,-0.12234 0.688732,-0.0713 0.160892,0.0511 0.415339,0.22467 0.565441,0.38581 0.263769,0.28309 0.272909,0.52442 0.272909,7.20507 0,6.9122 0,6.9122 -0.537134,7.25129 -0.295423,0.1865 -0.729763,0.57275 -0.965201,0.85841 -0.42807,0.51931 -0.42807,0.51931 -1.648999,0.14927 -0.671512,-0.20358 -1.720618,-0.48592 -2.331347,-0.62753 -1.110416,-0.25742 -1.110416,-0.25742 -1.212567,-1.28473 -0.07442,-0.7484 -0.23397,-1.29502 -0.587788,-2.01391 -0.294462,-0.59825 -0.7362,-1.21765 -1.122136,-1.5734 -0.350076,-0.32265 -1.053715,-0.78435 -1.563644,-1.02592 -0.927143,-0.43928 -0.927143,-0.43928 -4.473793,-0.43928 -3.54665,0 -3.54665,0 -4.595535,0.51839 -0.653375,0.32294 -1.270116,0.75839 -1.63559,1.15492 -0.322688,0.35006 -0.769309,1.02667 -0.992491,1.50365 -0.266577,0.56961 -0.441071,1.22095 -0.508643,1.89843 -0.102857,1.03138 -0.102857,1.03138 -1.178398,1.25813 -0.591548,0.12471 -1.600065,0.39032 -2.24115,0.59018 -0.641085,0.19992 -1.218928,0.36343 -1.284094,0.36343 -0.06517,0 -0.294358,-0.22043 -0.509313,-0.48981 z m 7.448395,-1.25076 c -0.0518,-0.13504 -0.01772,-0.5314 0.07575,-0.88088 0.09347,-0.34943 0.324262,-0.83773 0.512877,-1.08499 0.188616,-0.24726 0.544132,-0.59895 0.790036,-0.78145 0.245905,-0.18255 0.659418,-0.40298 0.918919,-0.48981 0.288355,-0.0966 1.523451,-0.15798 3.176342,-0.15798 1.717707,0 2.912982,0.0616 3.275836,0.16878 0.360112,0.10641 0.834993,0.43086 1.284587,0.87775 0.591847,0.58821 0.743473,0.84383 0.890639,1.50144 0.107254,0.4793 0.127071,0.8411 0.05013,0.91545 -0.07386,0.0713 -0.884062,0.0634 -1.931652,-0.0192 -1.014016,-0.0797 -3.202847,-0.10461 -4.996873,-0.0569 -1.755846,0.047 -3.363437,0.12278 -3.572426,0.16902 -0.285743,0.0631 -0.403339,0.0232 -0.47417,-0.16153 z"
         style="fill:#ffffff;fill-opacity:1" />
      <path
         sodipodi:nodetypes="scscccsssccsssssccsscccssscscssscsssssccsscscsssscsccsssccscsssccsscsssssscccssssccscssccscsss"
         inkscape:connector-curvature="0"
         id="path4443-3"
         d="m 11.030743,1007.0857 c -0.152683,-0.084 -0.355679,-0.2497 -0.451105,-0.3693 -0.133048,-0.1668 -0.173504,-1.684 -0.173504,-6.507 0,-3.14471 0.0194,-4.56371 0.01658,-6.18591 2.025551,-0.01 8.280382,-0.021 16.591153,-0.01 8.310771,0.018 15.507578,0 16.678896,-0.01 -0.0076,0.8797 -0.02548,3.1164 -0.0074,6.25911 0.03612,6.2857 0.03612,6.2857 -0.305993,6.6278 -0.188163,0.1881 -0.466936,0.3421 -0.619495,0.3421 -0.152562,0 -0.429612,-0.069 -0.615669,-0.1542 -0.18606,-0.085 -0.40742,-0.2877 -0.491915,-0.451 -0.0845,-0.1634 -0.169434,-1.0777 -0.188753,-2.0321 -0.03512,-1.735 -0.03512,-1.735 -14.401133,-1.735 -14.366009,0 -14.366009,0 -14.439214,1.8045 -0.04026,0.9924 -0.121771,1.9052 -0.181137,2.0285 -0.05936,0.1233 -0.263591,0.295 -0.453836,0.3817 -0.190246,0.087 -0.421038,0.1557 -0.512872,0.1534 -0.09183,0 -0.291892,-0.073 -0.444575,-0.1561 z m -0.624609,-17.81391 c 0,-2.23411 0.02206,-2.4517 0.274074,-2.70371 0.150742,-0.1508 0.436629,-0.31489 0.635304,-0.36479 0.201725,-0.051 0.502962,-0.014 0.682207,0.081 0.176543,0.095 0.39034,0.324 0.475116,0.5101 0.08477,0.1861 0.154133,0.835 0.154133,1.44219 0,0.6071 0.0541,1.1039 0.120218,1.1039 0.06612,0 0.716062,-0.2823 1.444322,-0.6272 0.728258,-0.345 2.063915,-0.8695 2.968127,-1.1656 0.904213,-0.2962 2.281963,-0.67 3.061668,-0.8309 0.779704,-0.1608 1.997692,-0.3535 2.706639,-0.4282 0.708947,-0.075 2.61309,-0.1369 4.231428,-0.1383 1.860289,0 3.539946,0.076 4.567112,0.2106 0.893571,0.1173 2.255295,0.3627 3.026051,0.5456 0.770758,0.18281 1.963525,0.5296 2.650595,0.7707 0.687071,0.241 1.833987,0.71321 2.548705,1.04931 0.714718,0.3361 1.354941,0.5768 1.422719,0.5349 0.06778,-0.042 0.123237,-0.6062 0.123237,-1.25401 0,-1.0656 0.0325,-1.2105 0.340696,-1.51869 0.187381,-0.1875 0.465517,-0.3408 0.618076,-0.3408 0.152562,0 0.429611,0.069 0.615669,0.1542 0.186059,0.085 0.409484,0.28779 0.496501,0.45119 0.104974,0.197 0.116678,1.0661 0.119353,2.58721 0.0021,1.1453 -0.0076,2.3273 -0.0076,2.3273 0.005,-0.01 -8.341981,-0.02 -16.652751,-0.01 -8.310772,0.018 -16.620197,10e-5 -16.620197,10e-5 0,0 -0.0015,-1.1796 -0.0015,-2.3944 z m 3.703832,-4.0299 c -0.214956,-0.2695 -0.636569,-0.645 -0.936914,-0.83461 -0.546084,-0.34474 -0.546084,-0.34474 -0.546084,-7.13775 0,-4.68283 0.04787,-6.89809 0.154108,-7.13125 0.08476,-0.18602 0.306312,-0.4076 0.492337,-0.49234 0.186027,-0.0848 0.448436,-0.1541 0.583132,-0.1541 0.134695,0 0.380844,0.12666 0.546996,0.28144 0.166154,0.1548 0.332838,0.42025 0.370409,0.5899 0.03757,0.16966 0.08517,0.52709 0.105782,0.79428 0.03747,0.48579 0.03747,0.48579 12.182646,0.48579 12.145177,0 12.145177,0 12.226932,-0.69399 0.04497,-0.3817 0.12753,-0.79762 0.183476,-0.92421 0.05595,-0.12663 0.280012,-0.30407 0.497921,-0.3943 0.217909,-0.0903 0.527841,-0.12234 0.688732,-0.0713 0.160892,0.0511 0.415339,0.22467 0.565441,0.38581 0.263769,0.28309 0.272909,0.52442 0.272909,7.20507 0,6.9122 0,6.9122 -0.537134,7.25125 -0.295423,0.1865 -0.729763,0.5728 -0.965201,0.8585 -0.42807,0.5193 -0.42807,0.5193 -1.648999,0.1492 -0.671512,-0.2036 -1.720618,-0.4859 -2.331347,-0.6275 -1.110416,-0.2574 -1.110416,-0.2574 -1.212567,-1.28474 -0.07442,-0.7484 -0.23397,-1.29502 -0.587788,-2.01391 -0.294462,-0.59825 -0.7362,-1.21765 -1.122136,-1.5734 -0.350076,-0.32265 -1.053715,-0.78435 -1.563644,-1.02592 -0.927143,-0.43928 -0.927143,-0.43928 -4.473793,-0.43928 -3.54665,0 -3.54665,0 -4.595535,0.51839 -0.653375,0.32294 -1.270116,0.75839 -1.63559,1.15492 -0.322688,0.35006 -0.769309,1.02667 -0.992491,1.50365 -0.266577,0.56961 -0.441071,1.22095 -0.508643,1.89843 -0.102857,1.03136 -0.102857,1.03136 -1.178398,1.25816 -0.591548,0.1247 -1.600065,0.3903 -2.24115,0.5902 -0.641085,0.1999 -1.218928,0.3634 -1.284094,0.3634 -0.06517,0 -0.294358,-0.2204 -0.509313,-0.4898 z m 7.448395,-1.25078 c -0.0518,-0.13504 -0.01772,-0.5314 0.07575,-0.88088 0.09347,-0.34943 0.324262,-0.83773 0.512877,-1.08499 0.188616,-0.24726 0.544132,-0.59895 0.790036,-0.78145 0.245905,-0.18255 0.659418,-0.40297 0.918919,-0.48981 0.288355,-0.0966 1.523451,-0.15798 3.176342,-0.15798 1.717707,0 2.912982,0.0616 3.275836,0.16878 0.360112,0.10641 0.834993,0.43087 1.284587,0.87775 0.591847,0.58821 0.743473,0.84383 0.890639,1.50144 0.107254,0.4793 0.127071,0.8411 0.05013,0.91545 -0.07386,0.0713 -0.884062,0.0634 -1.931652,-0.0192 -1.014016,-0.0797 -3.202847,-0.10461 -4.996873,-0.0569 -1.755846,0.047 -3.363437,0.12276 -3.572426,0.16907 -0.285743,0.063 -0.403339,0.023 -0.47417,-0.16158 z"
         style="fill:#ffffff;fill-opacity:1" />
    </g>
  </g>
</svg>
