<?xml version="1.0" encoding="UTF-8" standalone="no"?>
<!-- Created with Inkscape (http://www.inkscape.org/) -->

<svg
   xmlns:dc="http://purl.org/dc/elements/1.1/"
   xmlns:cc="http://creativecommons.org/ns#"
   xmlns:rdf="http://www.w3.org/1999/02/22-rdf-syntax-ns#"
   xmlns:svg="http://www.w3.org/2000/svg"
   xmlns="http://www.w3.org/2000/svg"
   xmlns:sodipodi="http://sodipodi.sourceforge.net/DTD/sodipodi-0.dtd"
   xmlns:inkscape="http://www.inkscape.org/namespaces/inkscape"
   width="128"
   height="128"
   viewBox="0 0 128 128"
   id="svg2"
   version="1.1"
   inkscape:version="0.91 r13725"
   sodipodi:docname="wi-fi.svg">
  <defs
     id="defs4" />
  <sodipodi:namedview
     id="base"
     pagecolor="#ffffff"
     bordercolor="#666666"
     borderopacity="1.0"
     inkscape:pageopacity="0.0"
     inkscape:pageshadow="2"
     inkscape:zoom="1.4"
     inkscape:cx="-67.955008"
     inkscape:cy="27.562045"
     inkscape:document-units="px"
     inkscape:current-layer="layer1"
     showgrid="false"
     units="px"
     showguides="false"
     inkscape:window-width="1366"
     inkscape:window-height="713"
     inkscape:window-x="0"
     inkscape:window-y="27"
     inkscape:window-maximized="1" />
  <metadata
     id="metadata7">
    <rdf:RDF>
      <cc:Work
         rdf:about="">
        <dc:format>image/svg+xml</dc:format>
        <dc:type
           rdf:resource="http://purl.org/dc/dcmitype/StillImage" />
        <dc:title />
      </cc:Work>
    </rdf:RDF>
  </metadata>
  <g
     inkscape:label="Layer 1"
     inkscape:groupmode="layer"
     id="layer1"
     transform="translate(0,-924.36216)">
    <path
       style="fill:#00a790;fill-opacity:1"
       d="m 54.596469,1052.294 c -21.393948,-0.778 -34.950465,-2.2681 -40.860556,-4.4913 -3.501912,-1.3173 -6.8239686,-4.0549 -8.274174,-6.8183 -2.6229336,-4.9982 -4.0485918,-13.2747 -5.11608356,-29.7008 -0.4123405,-6.3449 -0.409156,-33.50123 0.004782,-40.78331 1.19449136,-21.01368 2.82547736,-31.04514 5.78593306,-35.58665 1.1851031,-1.81802 3.2054646,-3.86456 4.6508435,-4.71111 4.110098,-2.40723 13.48806,-4.2563 25.908947,-5.10848 24.118425,-1.65474 59.31206,-0.38761 73.156989,2.63397 5.69087,1.24201 9.55758,3.44382 11.84617,6.74556 4.43677,6.4009 6.7045,26.73906 6.29074,56.41838 -0.35219,25.26264 -2.16441,42.62224 -5.12404,49.08424 -0.96667,2.1106 -2.82938,4.5253 -4.41216,5.7196 -4.26356,3.2171 -13.27257,5.0936 -29.43372,6.131 -5.71175,0.3666 -28.63431,0.6777 -34.423671,0.4672 z"
       id="path4233" />
    <path
       inkscape:connector-curvature="0"
       id="path4463"
       d="m 62.342396,1024.9849 c -1.72553,-0.5326 -3.690072,-2.5769 -4.227787,-4.3992 -0.790217,-2.6783 0.723278,-5.7746 3.486342,-7.1326 1.321008,-0.6492 3.448375,-0.6667 4.722413,-0.039 1.351906,0.6662 2.350212,1.6288 3.072878,2.9629 0.582955,1.0763 0.65852,1.3809 0.659074,2.6568 5.77e-4,1.1427 -0.09718,1.6402 -0.471554,2.402 -0.576761,1.1736 -1.969621,2.602 -3.104148,3.1835 -0.948913,0.4862 -3.123271,0.6783 -4.137218,0.3654 z m 2.712266,-4.1109 c 0.517434,-0.2161 0.698962,-0.4367 0.86401,-1.0497 0.375693,-1.3952 -0.242849,-2.597 -1.453546,-2.8241 -1.721762,-0.323 -2.865387,1.0138 -2.387029,2.7904 0.3321,1.2333 1.553702,1.678 2.976565,1.0834 z m -17.238694,-13.6609 c -0.598708,-0.3356 -1.107328,-1.1994 -1.107328,-1.8805 0,-0.7256 0.736237,-1.6371 2.425476,-3.0033 3.681389,-2.9772 7.886258,-4.69886 12.769283,-5.22851 6.35864,-0.68963 13.805442,1.94221 18.373115,6.49341 1.331819,1.327 1.26308,2.9004 -0.15883,3.6357 -0.955293,0.4941 -1.683615,0.229 -3.263297,-1.1875 -3.662261,-3.2838 -7.864316,-4.8792 -12.85145,-4.8792 -5.353667,0 -8.837537,1.4003 -13.52992,5.4378 -0.977077,0.8408 -1.878742,1.0485 -2.657049,0.6121 z M 30.827303,993.10673 c -0.691424,-0.42157 -1.111934,-1.44095 -0.916192,-2.22082 0.257249,-1.02492 4.363768,-4.63196 8.0543,-7.07454 5.956146,-3.94214 13.11829,-6.58295 20.464918,-7.54583 3.271953,-0.42878 10.104044,-0.29056 13.162882,0.26623 8.357018,1.52134 15.876096,4.89869 22.098267,9.92594 2.856217,2.30772 4.272926,3.76747 4.420661,4.55498 0.2587,1.37892 -0.96919,2.63176 -2.32935,2.37661 -0.45614,-0.0852 -1.162478,-0.60169 -2.382979,-1.7411 -6.973612,-6.51054 -15.790933,-10.49766 -25.250792,-11.4182 -12.280223,-1.19494 -24.783078,3.07247 -33.554566,11.45265 -1.940783,1.85426 -2.632722,2.11582 -3.767149,1.42408 z M 16.023695,979.168 c -0.640182,-0.27844 -1.213427,-1.14415 -1.213427,-1.83247 0,-0.72355 0.526018,-1.44762 2.20848,-3.04023 9.685694,-9.16839 22.433151,-15.54925 35.550736,-17.79538 7.10898,-1.21733 15.757925,-1.21733 22.866904,0 12.927796,2.21362 25.355732,8.37306 35.121882,17.40668 2.65787,2.45858 3.00681,3.11781 2.33634,4.4144 -0.35691,0.69025 -1.40854,1.18887 -2.127,1.00849 -0.27675,-0.0695 -1.61803,-1.14151 -2.9806,-2.38231 -10.797039,-9.8322 -22.015213,-15.01549 -36.674196,-16.94496 -2.409529,-0.31718 -11.810226,-0.31718 -14.219755,0 -8.355777,1.09979 -14.868678,3.03909 -21.640251,6.44351 -5.711904,2.87162 -10.06619,5.93083 -15.271958,10.72945 -1.766977,1.62881 -2.711819,2.29524 -3.213463,2.2666 -0.07238,0 -0.407046,-0.12731 -0.743692,-0.27378 z"
       style="fill:#ffffff;fill-opacity:1" />
  </g>
</svg>
